<svg width="16" height="21" viewBox="0 0 16 21" fill="none" xmlns="http://www.w3.org/2000/svg">
<path d="M0.0043909 13.0796C0.123072 16.6994 1.93296 19.5659 2.82307 20.5467C6.25558 21.3396 8.36246 20.5496 9.10327 19.9285C2.45219 14.9588 3.91098 9.71701 5.49339 7.46701C7.07581 5.21702 12.0456 4.62361 12.3917 8.85163C12.6686 12.234 9.44118 14.1016 7.79284 14.6126C9.05877 16.8478 11.6665 17.6538 12.8121 17.7774C17.5 12.9906 16.0016 3.93131 14.6664 0C3.4412 2.91758 -0.14396 8.55492 0.0043909 13.0796Z" fill="#4FB654"/>
<path d="M6.9522 9.39552C6.27967 11.2351 6.77088 12.8653 7.10055 13.4505C8.63351 13.1538 10.8588 11.2746 10.6115 9.2719C10.3643 7.26916 7.79286 7.09608 6.9522 9.39552Z" fill="#4FB654"/>
</svg>
