<svg width="207" height="116" viewBox="0 0 207 116" fill="none" xmlns="http://www.w3.org/2000/svg">
<path d="M-8.18274e-05 5.35213C-8.18274e-05 2.3962 2.39617 -6.12509e-05 5.35211 -6.12509e-05C8.30804 -6.12509e-05 10.7043 2.3962 10.7043 5.35213C10.7043 8.30806 8.30804 10.7043 5.35211 10.7043C2.39617 10.7043 -8.18274e-05 8.30806 -8.18274e-05 5.35213ZM165.162 5.35211V4.34857H165.858L166.102 5.00114L165.162 5.35211ZM206.936 114.386C207.13 114.906 206.866 115.484 206.347 115.678C205.828 115.871 205.25 115.608 205.056 115.088L205.996 114.737L206.936 114.386ZM9.34734 4.34859C9.90158 4.34859 10.3509 4.79789 10.3509 5.35213C10.3509 5.90637 9.90158 6.35567 9.34734 6.35567L9.34734 5.35213L9.34734 4.34859ZM21.3331 6.35567C20.7788 6.35567 20.3295 5.90637 20.3295 5.35213C20.3295 4.79789 20.7788 4.34859 21.3331 4.34859V5.35213V6.35567ZM29.3235 4.34859C29.8778 4.34859 30.3271 4.79789 30.3271 5.35213C30.3271 5.90637 29.8778 6.35567 29.3235 6.35567V5.35213V4.34859ZM41.3092 6.35566C40.755 6.35566 40.3057 5.90636 40.3057 5.35212C40.3057 4.79789 40.755 4.34859 41.3092 4.34859V5.35212V6.35566ZM49.2997 4.34859C49.8539 4.34859 50.3032 4.79789 50.3032 5.35212C50.3032 5.90636 49.8539 6.35566 49.2997 6.35566V5.35212V4.34859ZM61.2854 6.35566C60.7312 6.35566 60.2819 5.90636 60.2819 5.35212C60.2819 4.79789 60.7312 4.34859 61.2854 4.34859V5.35212V6.35566ZM69.2759 4.34859C69.8301 4.34859 70.2794 4.79789 70.2794 5.35212C70.2794 5.90636 69.8301 6.35566 69.2759 6.35566V5.35212V4.34859ZM81.2616 6.35566C80.7074 6.35566 80.2581 5.90636 80.2581 5.35212C80.2581 4.79789 80.7074 4.34859 81.2616 4.34859V5.35212V6.35566ZM89.2521 4.34858C89.8063 4.34858 90.2556 4.79788 90.2556 5.35211C90.2556 5.90635 89.8063 6.35565 89.2521 6.35565V5.35211V4.34858ZM101.238 6.35565C100.684 6.35565 100.234 5.90635 100.234 5.35211C100.234 4.79788 100.684 4.34858 101.238 4.34858V5.35211V6.35565ZM109.228 4.34858C109.782 4.34858 110.232 4.79788 110.232 5.35211C110.232 5.90635 109.782 6.35565 109.228 6.35565V5.35211V4.34858ZM121.214 6.35565C120.66 6.35565 120.21 5.90635 120.21 5.35211C120.21 4.79788 120.66 4.34858 121.214 4.34858V5.35211V6.35565ZM129.204 4.34858C129.759 4.34858 130.208 4.79788 130.208 5.35211C130.208 5.90635 129.759 6.35565 129.204 6.35565V5.35211L129.204 4.34858ZM141.19 6.35564C140.636 6.35564 140.187 5.90635 140.187 5.35211C140.187 4.79787 140.636 4.34857 141.19 4.34857V5.35211V6.35564ZM149.181 4.34857C149.735 4.34857 150.184 4.79787 150.184 5.35211C150.184 5.90634 149.735 6.35564 149.181 6.35564V5.35211V4.34857ZM161.166 6.35564C160.612 6.35564 160.163 5.90634 160.163 5.35211C160.163 4.79787 160.612 4.34857 161.166 4.34857V5.35211V6.35564ZM167.463 8.64732C167.657 9.16655 167.393 9.74461 166.874 9.93845C166.354 10.1323 165.776 9.86849 165.583 9.34926L166.523 8.99828L167.463 8.64732ZM169.666 20.2878C169.472 19.7686 169.736 19.1905 170.255 18.9967C170.774 18.8028 171.353 19.0666 171.546 19.5859L170.606 19.9368L169.666 20.2878ZM174.269 26.8782C174.462 27.3974 174.199 27.9755 173.679 28.1693C173.16 28.3632 172.582 28.0994 172.388 27.5801L173.328 27.2292L174.269 26.8782ZM176.472 38.5187C176.278 37.9994 176.542 37.4214 177.061 37.2275C177.58 37.0337 178.158 37.2975 178.352 37.8167L177.412 38.1677L176.472 38.5187ZM181.074 45.1091C181.268 45.6283 181.004 46.2064 180.485 46.4002C179.966 46.5941 179.388 46.3303 179.194 45.811L180.134 45.4601L181.074 45.1091ZM183.278 56.7496C183.084 56.2303 183.348 55.6523 183.867 55.4584C184.386 55.2646 184.964 55.5284 185.158 56.0476L184.218 56.3986L183.278 56.7496ZM187.88 63.34C188.074 63.8592 187.81 64.4373 187.291 64.6311C186.772 64.825 186.194 64.5612 186 64.0419L186.94 63.691L187.88 63.34ZM190.083 74.9805C189.889 74.4612 190.153 73.8832 190.673 73.6893C191.192 73.4955 191.77 73.7593 191.964 74.2785L191.023 74.6295L190.083 74.9805ZM194.686 81.5709C194.88 82.0901 194.616 82.6682 194.097 82.862C193.578 83.0559 192.999 82.7921 192.806 82.2728L193.746 81.9219L194.686 81.5709ZM196.889 93.2114C196.695 92.6921 196.959 92.1141 197.478 91.9202C197.998 91.7264 198.576 91.9902 198.769 92.5094L197.829 92.8604L196.889 93.2114ZM201.492 99.8018C201.686 100.321 201.422 100.899 200.903 101.093C200.383 101.287 199.805 101.023 199.611 100.504L200.552 100.153L201.492 99.8018ZM203.695 111.442C203.501 110.923 203.765 110.345 204.284 110.151C204.803 109.957 205.381 110.221 205.575 110.74L204.635 111.091L203.695 111.442ZM5.35211 5.35213L5.35211 4.34859H9.34734L9.34734 5.35213L9.34734 6.35567H5.35211L5.35211 5.35213ZM21.3331 5.35213V4.34859H29.3235V5.35213V6.35567H21.3331V5.35213ZM41.3092 5.35212V4.34859H49.2997V5.35212V6.35566H41.3092V5.35212ZM61.2854 5.35212V4.34859H69.2759V5.35212V6.35566H61.2854V5.35212ZM81.2616 5.35212V4.34859L89.2521 4.34858V5.35211V6.35565L81.2616 6.35566V5.35212ZM101.238 5.35211V4.34858H109.228V5.35211V6.35565H101.238V5.35211ZM121.214 5.35211V4.34858H129.204L129.204 5.35211V6.35565H121.214V5.35211ZM141.19 5.35211V4.34857H149.181V5.35211V6.35564H141.19V5.35211ZM161.166 5.35211V4.34857H165.162V5.35211V6.35564H161.166V5.35211ZM165.162 5.35211L166.102 5.00114L167.463 8.64732L166.523 8.99828L165.583 9.34926L164.221 5.70307L165.162 5.35211ZM170.606 19.9368L171.546 19.5859L174.269 26.8782L173.328 27.2292L172.388 27.5801L169.666 20.2878L170.606 19.9368ZM177.412 38.1677L178.352 37.8167L181.074 45.1091L180.134 45.4601L179.194 45.811L176.472 38.5187L177.412 38.1677ZM184.218 56.3986L185.158 56.0476L187.88 63.34L186.94 63.691L186 64.0419L183.278 56.7496L184.218 56.3986ZM191.023 74.6295L191.964 74.2785L194.686 81.5709L193.746 81.9219L192.806 82.2728L190.083 74.9805L191.023 74.6295ZM197.829 92.8604L198.769 92.5094L201.492 99.8018L200.552 100.153L199.611 100.504L196.889 93.2114L197.829 92.8604ZM204.635 111.091L205.575 110.74L206.936 114.386L205.996 114.737L205.056 115.088L203.695 111.442L204.635 111.091Z" fill="#4FB654"/>
</svg>
