<svg width="112" height="34" viewBox="0 0 112 34" fill="none" xmlns="http://www.w3.org/2000/svg">
<path d="M8.13007e-05 17C8.13007e-05 18.4728 1.19399 19.6667 2.66675 19.6667C4.13951 19.6667 5.33341 18.4728 5.33341 17C5.33341 15.5272 4.13951 14.3333 2.66675 14.3333C1.19399 14.3333 8.13007e-05 15.5272 8.13007e-05 17ZM106 17C106 18.4728 107.194 19.6667 108.667 19.6667C110.14 19.6667 111.333 18.4728 111.333 17C111.333 15.5272 110.14 14.3333 108.667 14.3333C107.194 14.3333 106 15.5272 106 17ZM2.66675 17V17.5H108.667V17V16.5H2.66675V17Z" fill="#C6CDCC"/>
</svg>
