<svg width="97" height="34" viewBox="0 0 97 34" fill="none" xmlns="http://www.w3.org/2000/svg">
<path d="M8.13007e-05 17C8.13007e-05 18.4728 1.19399 19.6667 2.66675 19.6667C4.13951 19.6667 5.33341 18.4728 5.33341 17C5.33341 15.5272 4.13951 14.3333 2.66675 14.3333C1.19399 14.3333 8.13007e-05 15.5272 8.13007e-05 17ZM91.0001 17C91.0001 18.4728 92.194 19.6667 93.6667 19.6667C95.1395 19.6667 96.3334 18.4728 96.3334 17C96.3334 15.5272 95.1395 14.3333 93.6667 14.3333C92.194 14.3333 91.0001 15.5272 91.0001 17ZM2.66675 17V17.5H93.6667V17V16.5H2.66675V17Z" fill="#C6CDCC"/>
</svg>
