<svg width="64" height="32" viewBox="0 0 64 32" fill="none" xmlns="http://www.w3.org/2000/svg">
<path fill-rule="evenodd" clip-rule="evenodd" d="M21.6748 15.9998C21.6748 16.1766 21.6046 16.3462 21.4795 16.4712L14.8129 23.1379C14.5525 23.3983 14.1304 23.3983 13.8701 23.1379C13.6097 22.8776 13.6097 22.4554 13.8701 22.1951L20.0653 15.9998L13.8701 9.80457C13.6097 9.54423 13.6097 9.12212 13.8701 8.86177C14.1304 8.60142 14.5525 8.60142 14.8129 8.86177L21.4795 15.5284C21.6046 15.6535 21.6748 15.823 21.6748 15.9998Z" fill="white" stroke="white" stroke-linecap="round" stroke-linejoin="round"/>
<path fill-rule="evenodd" clip-rule="evenodd" d="M37.6748 15.9998C37.6748 16.1766 37.6046 16.3462 37.4795 16.4712L30.8129 23.1379C30.5525 23.3983 30.1304 23.3983 29.8701 23.1379C29.6097 22.8776 29.6097 22.4554 29.8701 22.1951L36.0653 15.9998L29.8701 9.80457C29.6097 9.54423 29.6097 9.12212 29.8701 8.86177C30.1304 8.60142 30.5525 8.60142 30.8129 8.86177L37.4795 15.5284C37.6046 15.6535 37.6748 15.823 37.6748 15.9998Z" fill="white" stroke="white" stroke-linecap="round" stroke-linejoin="round"/>
<path fill-rule="evenodd" clip-rule="evenodd" d="M53.6748 15.9998C53.6748 16.1766 53.6046 16.3462 53.4795 16.4712L46.8129 23.1379C46.5525 23.3983 46.1304 23.3983 45.8701 23.1379C45.6097 22.8776 45.6097 22.4554 45.8701 22.1951L52.0653 15.9998L45.8701 9.80457C45.6097 9.54423 45.6097 9.12212 45.8701 8.86177C46.1304 8.60142 46.5525 8.60142 46.8129 8.86177L53.4795 15.5284C53.6046 15.6535 53.6748 15.823 53.6748 15.9998Z" fill="white" stroke="white" stroke-linecap="round" stroke-linejoin="round"/>
</svg>
