<svg preserveAspectRatio="none" width="100%" height="100%" overflow="visible" style="display: block;" viewBox="0 0 1920 432" fill="none" xmlns="http://www.w3.org/2000/svg">
<g id="ESGPN">
<path id="Vector" d="M1579.18 109.48V396.493L1626.6 414.247V423.123H1513.98V414.247L1561.4 396.493V29.5898L1519.91 17.7542V8.87754H1582.14C1603.09 8.87754 1619.49 12.6255 1631.34 20.1213C1643.2 27.6172 1654.46 37.6775 1665.13 50.3021L1854.8 272.22V35.5076L1807.38 17.7542V8.87754H1920V17.7542L1872.58 35.5076V432H1854.8L1579.18 109.48Z" fill="var(--fill-0, #0C3B0E)"/>
<path id="Vector_2" d="M1131.79 414.247L1167.35 405.37V26.6309L1131.79 17.7542V8.87754H1297.75C1363.35 8.87754 1410.37 19.7268 1438.82 41.4254C1467.27 62.7295 1481.5 94.2911 1481.5 136.11C1481.5 177.929 1467.27 209.688 1438.82 231.387C1410.37 252.691 1363.35 263.343 1297.75 263.343H1265.15V405.37L1300.71 414.247V423.123H1131.79V414.247ZM1297.75 248.548C1322.65 248.548 1342.6 239.08 1357.62 220.143C1373.03 201.206 1380.73 173.195 1380.73 136.11C1380.73 99.4199 1373.03 71.6062 1357.62 52.6692C1342.6 33.3378 1322.65 23.6721 1297.75 23.6721H1265.15V248.548H1297.75Z" fill="var(--fill-0, #0C3B0E)"/>
<path id="Vector_3" d="M885.681 431.999C855.65 431.999 827.989 423.517 802.699 406.553C777.41 389.588 757.257 364.931 742.241 332.58C727.225 299.835 719.717 260.975 719.717 216C719.717 170.63 727.423 131.77 742.834 99.419C758.64 66.6738 780.571 42.0163 808.627 25.4465C837.078 8.48217 869.875 0 907.02 0C929.543 0 952.265 6.50957 975.183 19.5287C983.877 24.263 992.57 30.5753 1001.26 38.4657C1007.98 28.2082 1014.9 20.1205 1022.01 14.2027C1029.12 9.07394 1033.07 6.31231 1033.86 5.91779H1048.68V118.356H1024.97C1019.84 99.419 1012.13 82.2574 1001.86 66.8711C992.372 51.8793 980.518 39.452 966.292 29.589C952.462 19.726 936.458 14.7945 918.281 14.7945C891.016 14.7945 868.295 30.5753 850.118 62.1369C832.336 93.6984 823.445 144.986 823.445 216C823.445 287.013 831.348 337.314 847.154 366.903C863.355 396.492 884.101 411.287 909.39 411.287C924.011 411.287 937.249 403.396 949.103 387.616C953.45 381.698 957.994 373.807 962.736 363.944V227.835L927.172 218.958V210.082H1096.1V218.958L1060.54 227.835V426.081H1051.65C1022.8 426.081 1000.87 418.191 985.852 402.41C979.135 395.309 974.393 387.418 971.627 378.739C966.095 388.602 959.575 397.479 952.067 405.369C934.285 423.122 912.157 431.999 885.681 431.999Z" fill="var(--fill-0, #0C3B0E)"/>
<path id="Vector_4" d="M521.322 431.999C493.267 431.999 466.989 425.687 442.489 413.062C431.425 407.539 422.139 401.029 414.631 393.533C409.099 402.607 402.184 410.695 393.886 417.796C386.773 422.925 382.821 425.687 382.031 426.081H367.213V313.643H390.922C396.849 332.975 405.147 350.334 415.817 365.72C439.921 400.043 471.138 417.205 509.468 417.205C531.991 417.205 549.971 410.498 563.406 397.084C576.841 383.67 583.559 365.72 583.559 343.232C583.559 330.213 579.607 318.575 571.704 308.317C564.196 298.06 554.713 288.986 543.253 281.095C531.794 273.205 515.79 263.342 495.242 251.506C469.162 236.909 448.022 223.693 431.82 211.857C415.619 200.022 401.789 185.227 390.329 167.474C378.87 149.326 373.14 128.022 373.14 103.561C373.14 84.23 378.475 66.8711 389.144 51.4848C400.208 35.704 416.607 23.2767 438.34 14.2027C460.074 4.73423 486.746 0 518.359 0C541.278 0 564.196 6.50957 587.115 19.5287C595.809 24.263 604.502 30.5753 613.195 38.4657C619.913 28.2082 626.828 20.1205 633.941 14.2027C641.054 9.07394 645.005 6.31231 645.795 5.91779H660.614V118.356H636.904C631.767 99.419 624.062 82.2574 613.788 66.8711C604.304 51.8793 592.45 39.452 578.224 29.589C564.394 19.726 548.39 14.7945 530.213 14.7945C514.802 14.7945 501.565 20.9095 490.5 33.1397C479.436 45.3698 473.904 60.9533 473.904 79.8902C473.904 94.4875 478.053 107.704 486.351 119.539C495.045 130.981 505.516 141.041 517.766 149.72C530.411 158.4 547.402 168.854 568.741 181.085C593.635 195.287 613.788 207.912 629.199 218.958C644.61 230.005 657.65 243.813 668.319 260.383C678.988 276.558 684.323 295.298 684.323 316.602C684.323 337.906 678.198 357.435 665.948 375.188C653.698 392.547 635.324 406.355 610.824 416.613C586.325 426.87 556.491 431.999 521.322 431.999Z" fill="var(--fill-0, #0C3B0E)"/>
<path id="Vector_5" d="M0 414.247L35.5637 405.37V26.6309L0 17.7542V8.87754H317.11V115.398H299.328C291.82 109.48 285.3 101.984 279.768 92.9103C267.123 71.6062 260.801 48.5268 260.801 23.6721H133.364V210.083H201.528C204.294 195.091 209.431 181.085 216.939 168.066C220.1 162.149 223.854 156.428 228.201 150.905H245.982V284.055H228.201C223.854 278.532 220.1 272.811 216.939 266.894C209.431 253.874 204.294 239.869 201.528 224.877H133.364V408.329H272.655C272.655 383.474 278.978 360.395 291.623 339.091C297.155 330.017 303.675 322.521 311.183 316.603H328.964V423.123H0V414.247Z" fill="var(--fill-0, #0C3B0E)"/>
</g>
</svg>
