<svg preserveAspectRatio="none" width="100%" height="100%" overflow="visible" style="display: block;" viewBox="0 0 98 22" fill="none" xmlns="http://www.w3.org/2000/svg">
<g id="ESGPN">
<path id="Vector" d="M80.604 5.57525V20.1917L83.0243 21.0958V21.5479H77.2761V21.0958L79.6964 20.1917V1.50676L77.5786 0.90402V0.451965H80.7553C81.8243 0.451965 82.6613 0.642833 83.2664 1.02457C83.8714 1.4063 84.4463 1.91863 84.9908 2.56155L94.6721 13.8629V1.80813L92.2518 0.90402V0.451965H98V0.90402L95.5797 1.80813V21.9999H94.6721L80.604 5.57525Z" fill="var(--fill-0, #1D2623)"/>
<path id="Vector_2" d="M57.7683 21.0958L59.5836 20.6438V1.35608L57.7683 0.90402V0.451965H66.2394C69.5875 0.451965 71.9877 1.00448 73.4399 2.1095C74.892 3.19443 75.6181 4.80174 75.6181 6.93142C75.6181 9.0611 74.892 10.6785 73.4399 11.7835C71.9877 12.8684 69.5875 13.4109 66.2394 13.4109H64.5755V20.6438L66.3907 21.0958V21.5479H57.7683V21.0958ZM66.2394 12.6574C67.5101 12.6574 68.5286 12.1753 69.2951 11.2109C70.0817 10.2465 70.475 8.82 70.475 6.93142C70.475 5.06293 70.0817 3.64649 69.2951 2.6821C68.5286 1.69763 67.5101 1.20539 66.2394 1.20539H64.5755V12.6574H66.2394Z" fill="var(--fill-0, #1D2623)"/>
<path id="Vector_3" d="M45.2068 22C43.6739 22 42.262 21.568 40.9712 20.7041C39.6804 19.8402 38.6518 18.5845 37.8853 16.937C37.1189 15.2694 36.7357 13.2904 36.7357 11C36.7357 8.6895 37.129 6.7105 37.9156 5.06301C38.7223 3.39543 39.8417 2.13973 41.2738 1.29589C42.7259 0.431963 44.4 0 46.2959 0C47.4455 0 48.6053 0.331507 49.7751 0.99452C50.2188 1.23562 50.6625 1.55708 51.1063 1.9589C51.4491 1.43653 51.8021 1.02466 52.1652 0.723287C52.5282 0.4621 52.7299 0.321461 52.7702 0.30137H53.5266V6.0274H52.3164C52.0542 5.06301 51.6609 4.18904 51.1365 3.40548C50.6525 2.64201 50.0474 2.00913 49.3213 1.50685C48.6154 1.00457 47.7985 0.753424 46.8707 0.753424C45.479 0.753424 44.3193 1.55708 43.3915 3.16438C42.4839 4.77169 42.0301 7.38356 42.0301 11C42.0301 14.6164 42.4335 17.1781 43.2403 18.6849C44.0672 20.1918 45.1261 20.9452 46.4169 20.9452C47.1632 20.9452 47.8388 20.5434 48.4439 19.7397C48.6658 19.4384 48.8977 19.0365 49.1398 18.5342V11.6027L47.3245 11.1507V10.6986H55.9469V11.1507L54.1317 11.6027V21.6986H53.6778C52.2055 21.6986 51.0861 21.2968 50.3197 20.4932C49.9768 20.1315 49.7348 19.7297 49.5936 19.2877C49.3112 19.79 48.9784 20.242 48.5952 20.6438C47.6876 21.5479 46.5581 22 45.2068 22Z" fill="var(--fill-0, #1D2623)"/>
<path id="Vector_4" d="M26.6091 22C25.1771 22 23.8358 21.6785 22.5853 21.0356C22.0206 20.7543 21.5466 20.4228 21.1634 20.0411C20.881 20.5032 20.528 20.9151 20.1045 21.2767C19.7414 21.5379 19.5398 21.6785 19.4994 21.6986H18.7431V15.9726H19.9532C20.2558 16.9571 20.6793 17.8411 21.2239 18.6247C22.4542 20.3726 24.0476 21.2466 26.004 21.2466C27.1536 21.2466 28.0713 20.905 28.7571 20.2219C29.4429 19.5388 29.7857 18.6247 29.7857 17.4795C29.7857 16.8164 29.584 16.2237 29.1807 15.7014C28.7974 15.179 28.3134 14.7169 27.7285 14.3151C27.1436 13.9132 26.3267 13.411 25.2779 12.8082C23.9467 12.0648 22.8677 11.3918 22.0407 10.789C21.2138 10.1863 20.5079 9.43288 19.923 8.52877C19.3381 7.60457 19.0456 6.51964 19.0456 5.27397C19.0456 4.2895 19.3179 3.40548 19.8625 2.62192C20.4272 1.81826 21.2642 1.18539 22.3735 0.723287C23.4828 0.241096 24.8443 0 26.4578 0C27.6276 0 28.7974 0.331507 29.9673 0.99452C30.411 1.23562 30.8547 1.55708 31.2984 1.9589C31.6413 1.43653 31.9943 1.02466 32.3573 0.723287C32.7204 0.4621 32.922 0.321461 32.9624 0.30137H33.7187V6.0274H32.5086C32.2464 5.06301 31.8531 4.18904 31.3287 3.40548C30.8446 2.64201 30.2395 2.00913 29.5134 1.50685C28.8075 1.00457 27.9907 0.753424 27.0629 0.753424C26.2763 0.753424 25.6006 1.06484 25.0359 1.68767C24.4711 2.3105 24.1888 3.10411 24.1888 4.06849C24.1888 4.81187 24.4005 5.48493 24.8241 6.08767C25.2678 6.67032 25.8023 7.18265 26.4276 7.62466C27.073 8.06667 27.9402 8.59909 29.0294 9.22192C30.3 9.9452 31.3287 10.5881 32.1153 11.1507C32.9019 11.7132 33.5675 12.4164 34.112 13.2603C34.6566 14.084 34.9289 15.0384 34.9289 16.1233C34.9289 17.2082 34.6163 18.2027 33.991 19.1069C33.3658 19.9909 32.4279 20.6941 31.1774 21.2164C29.9269 21.7388 28.4041 22 26.6091 22Z" fill="var(--fill-0, #1D2623)"/>
<path id="Vector_5" d="M0 21.0958L1.81523 20.6438V1.3561L0 0.904047V0.451993H16.1858V5.87665H15.2782C14.895 5.57528 14.5622 5.19355 14.2798 4.73145C13.6344 3.64651 13.3117 2.47117 13.3117 1.20542H6.80712V10.6986H10.2863C10.4275 9.9351 10.6897 9.22186 11.0729 8.55884C11.2343 8.25748 11.4259 7.96615 11.6477 7.68487H12.5554V14.4657H11.6477C11.4259 14.1844 11.2343 13.8931 11.0729 13.5917C10.6897 12.9287 10.4275 12.2155 10.2863 11.452H6.80712V20.7945H13.9168C13.9168 19.5287 14.2395 18.3534 14.8849 17.2684C15.1673 16.8063 15.5001 16.4246 15.8833 16.1232H16.7909V21.5479H0V21.0958Z" fill="var(--fill-0, #1D2623)"/>
</g>
</svg>
