<svg width="70" height="46" viewBox="0 0 70 46" fill="none" xmlns="http://www.w3.org/2000/svg">
<path d="M-8.19726e-05 40.2126C-8.19726e-05 43.1738 2.40043 45.5743 5.3616 45.5743C8.32278 45.5743 10.7233 43.1738 10.7233 40.2126C10.7233 37.2514 8.32278 34.8509 5.3616 34.8509C2.40043 34.8509 -8.19726e-05 37.2514 -8.19726e-05 40.2126ZM37.1782 40.2126V41.2179H37.6571L37.9588 40.8461L37.1782 40.2126ZM69.7754 1.63879C70.1252 1.20766 70.0594 0.57455 69.6282 0.224693C69.1971 -0.125164 68.564 -0.0592829 68.2141 0.371843L68.9948 1.00532L69.7754 1.63879ZM8.54326 41.2179C9.09848 41.2179 9.54857 40.7678 9.54857 40.2126C9.54857 39.6574 9.09848 39.2073 8.54326 39.2073V40.2126V41.2179ZM18.0882 39.2073C17.533 39.2073 17.0829 39.6574 17.0829 40.2126C17.0829 40.7678 17.533 41.2179 18.0882 41.2179V40.2126V39.2073ZM24.4515 41.2179C25.0068 41.2179 25.4569 40.7678 25.4569 40.2126C25.4569 39.6574 25.0068 39.2073 24.4515 39.2073V40.2126V41.2179ZM33.9965 39.2073C33.4413 39.2073 32.9912 39.6574 32.9912 40.2126C32.9912 40.7678 33.4413 41.2179 33.9965 41.2179V40.2126V39.2073ZM40.0799 38.2323C40.4298 37.8011 40.3639 37.168 39.9328 36.8182C39.5016 36.4683 38.8685 36.5342 38.5187 36.9653L39.2993 37.5988L40.0799 38.2323ZM44.882 29.1239C44.5321 29.555 44.598 30.1881 45.0291 30.538C45.4603 30.8878 46.0934 30.8219 46.4432 30.3908L45.6626 29.7573L44.882 29.1239ZM50.6854 25.1632C51.0353 24.732 50.9694 24.0989 50.5383 23.7491C50.1072 23.3992 49.474 23.4651 49.1242 23.8962L49.9048 24.5297L50.6854 25.1632ZM55.4875 16.0548C55.1376 16.4859 55.2035 17.119 55.6347 17.4689C56.0658 17.8187 56.6989 17.7528 57.0487 17.3217L56.2681 16.6882L55.4875 16.0548ZM61.291 12.0941C61.6408 11.6629 61.5749 11.0298 61.1438 10.68C60.7127 10.3301 60.0796 10.396 59.7297 10.8271L60.5103 11.4606L61.291 12.0941ZM66.093 2.98566C65.7432 3.41679 65.8091 4.0499 66.2402 4.39976C66.6713 4.74962 67.3044 4.68373 67.6543 4.25261L66.8737 3.61914L66.093 2.98566ZM5.3616 40.2126V41.2179H8.54326V40.2126V39.2073H5.3616V40.2126ZM18.0882 40.2126V41.2179H24.4515V40.2126V39.2073H18.0882V40.2126ZM33.9965 40.2126V41.2179H37.1782V40.2126V39.2073H33.9965V40.2126ZM37.1782 40.2126L37.9588 40.8461L40.0799 38.2323L39.2993 37.5988L38.5187 36.9653L36.3976 39.5791L37.1782 40.2126ZM45.6626 29.7573L46.4432 30.3908L50.6854 25.1632L49.9048 24.5297L49.1242 23.8962L44.882 29.1239L45.6626 29.7573ZM56.2681 16.6882L57.0487 17.3217L61.291 12.0941L60.5103 11.4606L59.7297 10.8271L55.4875 16.0548L56.2681 16.6882ZM66.8737 3.61914L67.6543 4.25261L69.7754 1.63879L68.9948 1.00532L68.2141 0.371843L66.093 2.98566L66.8737 3.61914Z" fill="#4FB654"/>
</svg>
