<svg width="159" height="112" viewBox="0 0 159 112" fill="none" xmlns="http://www.w3.org/2000/svg">
<path d="M-8.17722e-05 106.303C-8.17722e-05 109.257 2.39456 111.651 5.34849 111.651C8.30243 111.651 10.6971 109.257 10.6971 106.303C10.6971 103.349 8.30243 100.954 5.34849 100.954C2.39456 100.954 -8.17722e-05 103.349 -8.17722e-05 106.303ZM77.569 106.303V107.306H78.065L78.366 106.912L77.569 106.303ZM158.794 1.61159C159.13 1.17143 159.046 0.542073 158.606 0.205881C158.166 -0.130311 157.536 -0.0460299 157.2 0.394128L157.997 1.00286L158.794 1.61159ZM8.95952 107.306C9.51338 107.306 9.96238 106.857 9.96238 106.303C9.96238 105.749 9.51338 105.3 8.95952 105.3L8.95952 106.303L8.95952 107.306ZM19.7926 105.3C19.2387 105.3 18.7897 105.749 18.7897 106.303C18.7897 106.857 19.2387 107.306 19.7926 107.306L19.7926 106.303L19.7926 105.3ZM27.0146 107.306C27.5685 107.306 28.0175 106.857 28.0175 106.303C28.0175 105.749 27.5685 105.3 27.0147 105.3V106.303L27.0146 107.306ZM37.8477 105.3C37.2939 105.3 36.8449 105.749 36.8449 106.303C36.8449 106.857 37.2939 107.306 37.8477 107.306V106.303L37.8477 105.3ZM45.0698 107.306C45.6236 107.306 46.0726 106.857 46.0726 106.303C46.0726 105.749 45.6236 105.3 45.0698 105.3L45.0698 106.303V107.306ZM55.9029 105.3C55.349 105.3 54.9 105.749 54.9 106.303C54.9 106.857 55.349 107.306 55.9029 107.306V106.303V105.3ZM63.1249 107.306C63.6788 107.306 64.1278 106.857 64.1278 106.303C64.1278 105.749 63.6788 105.3 63.1249 105.3V106.303V107.306ZM73.958 105.3C73.4041 105.3 72.9551 105.749 72.9551 106.303C72.9551 106.857 73.4041 107.306 73.958 107.306V106.303V105.3ZM80.6639 103.903C81.0001 103.463 80.9158 102.834 80.4757 102.497C80.0355 102.161 79.4062 102.245 79.07 102.686L79.867 103.294L80.6639 103.903ZM85.9638 93.6599C85.6276 94.1001 85.7119 94.7294 86.1521 95.0656C86.5922 95.4018 87.2216 95.3175 87.5578 94.8774L86.7608 94.2687L85.9638 93.6599ZM92.1537 88.8602C92.4898 88.4201 92.4056 87.7907 91.9654 87.4545C91.5252 87.1183 90.8959 87.2026 90.5597 87.6428L91.3567 88.2515L92.1537 88.8602ZM97.4535 78.6171C97.1173 79.0572 97.2016 79.6866 97.6418 80.0228C98.0819 80.3589 98.7113 80.2747 99.0475 79.8345L98.2505 79.2258L97.4535 78.6171ZM103.643 73.8174C103.98 73.3772 103.895 72.7478 103.455 72.4117C103.015 72.0755 102.386 72.1597 102.049 72.5999L102.846 73.2086L103.643 73.8174ZM108.943 63.5742C108.607 64.0143 108.691 64.6437 109.131 64.9799C109.572 65.3161 110.201 65.2318 110.537 64.7916L109.74 64.1829L108.943 63.5742ZM115.133 58.7745C115.469 58.3343 115.385 57.705 114.945 57.3688C114.505 57.0326 113.875 57.1169 113.539 57.557L114.336 58.1658L115.133 58.7745ZM120.433 48.5313C120.097 48.9715 120.181 49.6008 120.621 49.937C121.061 50.2732 121.691 50.1889 122.027 49.7488L121.23 49.14L120.433 48.5313ZM126.623 43.7316C126.959 43.2915 126.875 42.6621 126.435 42.3259C125.994 41.9897 125.365 42.074 125.029 42.5142L125.826 43.1229L126.623 43.7316ZM131.923 33.4884C131.586 33.9286 131.671 34.558 132.111 34.8941C132.551 35.2303 133.18 35.1461 133.517 34.7059L132.72 34.0972L131.923 33.4884ZM138.113 28.6888C138.449 28.2486 138.364 27.6192 137.924 27.283C137.484 26.9469 136.855 27.0311 136.519 27.4713L137.316 28.08L138.113 28.6888ZM143.412 18.4456C143.076 18.8857 143.16 19.5151 143.601 19.8513C144.041 20.1875 144.67 20.1032 145.006 19.663L144.209 19.0543L143.412 18.4456ZM149.602 13.6459C149.938 13.2057 149.854 12.5764 149.414 12.2402C148.974 11.904 148.344 11.9883 148.008 12.4284L148.805 13.0372L149.602 13.6459ZM154.902 3.4027C154.566 3.84286 154.65 4.47222 155.09 4.80841C155.531 5.1446 156.16 5.06032 156.496 4.62016L155.699 4.01143L154.902 3.4027ZM5.34849 106.303L5.34849 107.306H8.95952L8.95952 106.303L8.95952 105.3H5.3485L5.34849 106.303ZM19.7926 106.303L19.7926 107.306H27.0146L27.0147 106.303V105.3H19.7926L19.7926 106.303ZM37.8477 106.303V107.306H45.0698V106.303L45.0698 105.3H37.8477L37.8477 106.303ZM55.9029 106.303V107.306H63.1249V106.303V105.3H55.9029V106.303ZM73.958 106.303V107.306H77.569V106.303V105.3H73.958V106.303ZM77.569 106.303L78.366 106.912L80.6639 103.903L79.867 103.294L79.07 102.686L76.772 105.694L77.569 106.303ZM86.7608 94.2687L87.5578 94.8774L92.1537 88.8602L91.3567 88.2515L90.5597 87.6428L85.9638 93.6599L86.7608 94.2687ZM98.2505 79.2258L99.0475 79.8345L103.643 73.8174L102.846 73.2086L102.049 72.5999L97.4535 78.6171L98.2505 79.2258ZM109.74 64.1829L110.537 64.7916L115.133 58.7745L114.336 58.1658L113.539 57.557L108.943 63.5742L109.74 64.1829ZM121.23 49.14L122.027 49.7488L126.623 43.7316L125.826 43.1229L125.029 42.5142L120.433 48.5313L121.23 49.14ZM132.72 34.0972L133.517 34.7059L138.113 28.6888L137.316 28.08L136.519 27.4713L131.923 33.4884L132.72 34.0972ZM144.209 19.0543L145.006 19.663L149.602 13.6459L148.805 13.0372L148.008 12.4284L143.412 18.4456L144.209 19.0543ZM155.699 4.01143L156.496 4.62016L158.794 1.61159L157.997 1.00286L157.2 0.394128L154.902 3.4027L155.699 4.01143Z" fill="#4FB654"/>
</svg>
