<svg width="81" height="44" viewBox="0 0 81 44" fill="none" xmlns="http://www.w3.org/2000/svg">
<path d="M-8.18606e-05 5.3544C-8.18606e-05 2.39727 2.39715 4.21271e-05 5.35428 4.21271e-05C8.31141 4.21271e-05 10.7086 2.39727 10.7086 5.3544C10.7086 8.31153 8.31141 10.7088 5.35428 10.7088C2.39715 10.7088 -8.18606e-05 8.31153 -8.18606e-05 5.3544ZM36.6231 5.3544V4.35046H36.9942L37.2761 4.59188L36.6231 5.3544ZM80.649 41.7378C81.0701 42.0984 81.1191 42.7322 80.7585 43.1533C80.3978 43.5745 79.764 43.6235 79.3429 43.2628L79.9959 42.5003L80.649 41.7378ZM8.48116 4.35046C9.03562 4.35046 9.4851 4.79994 9.4851 5.3544C9.4851 5.90886 9.03562 6.35835 8.48116 6.35835V5.3544V4.35046ZM17.8618 6.35835C17.3073 6.35835 16.8579 5.90886 16.8579 5.3544C16.8579 4.79994 17.3073 4.35046 17.8618 4.35046V5.3544V6.35835ZM24.1156 4.35046C24.67 4.35046 25.1195 4.79994 25.1195 5.3544C25.1195 5.90886 24.67 6.35835 24.1156 6.35835V5.3544V4.35046ZM33.4962 6.35835C32.9417 6.35835 32.4923 5.90886 32.4923 5.3544C32.4923 4.79994 32.9417 4.35046 33.4962 4.35046V5.3544V6.35835ZM40.1676 7.06828C40.5888 7.42894 40.6378 8.06271 40.2771 8.48384C39.9165 8.90497 39.2827 8.95398 38.8616 8.59331L39.5146 7.8308L40.1676 7.06828ZM47.5361 16.0225C47.115 15.6618 47.066 15.0281 47.4267 14.6069C47.7873 14.1858 48.4211 14.1368 48.8422 14.4975L48.1892 15.26L47.5361 16.0225ZM54.6253 19.4502C55.0464 19.8109 55.0954 20.4447 54.7347 20.8658C54.3741 21.2869 53.7403 21.3359 53.3192 20.9753L53.9722 20.2128L54.6253 19.4502ZM61.9937 28.4045C61.5726 28.0438 61.5236 27.41 61.8843 26.9889C62.2449 26.5678 62.8787 26.5187 63.2998 26.8794L62.6468 27.6419L61.9937 28.4045ZM69.0829 31.8322C69.504 32.1929 69.553 32.8266 69.1924 33.2478C68.8317 33.6689 68.1979 33.7179 67.7768 33.3572L68.4298 32.5947L69.0829 31.8322ZM76.4514 40.7864C76.0302 40.4257 75.9812 39.792 76.3419 39.3709C76.7026 38.9497 77.3363 38.9007 77.7575 39.2614L77.1044 40.0239L76.4514 40.7864ZM5.35428 5.3544V4.35046H8.48116V5.3544V6.35835H5.35428V5.3544ZM17.8618 5.3544V4.35046H24.1156V5.3544V6.35835H17.8618V5.3544ZM33.4962 5.3544V4.35046H36.6231V5.3544V6.35835H33.4962V5.3544ZM36.6231 5.3544L37.2761 4.59188L40.1676 7.06828L39.5146 7.8308L38.8616 8.59331L35.97 6.11692L36.6231 5.3544ZM48.1892 15.26L48.8422 14.4975L54.6253 19.4502L53.9722 20.2128L53.3192 20.9753L47.5361 16.0225L48.1892 15.26ZM62.6468 27.6419L63.2998 26.8794L69.0829 31.8322L68.4298 32.5947L67.7768 33.3572L61.9937 28.4045L62.6468 27.6419ZM77.1044 40.0239L77.7575 39.2614L80.649 41.7378L79.9959 42.5003L79.3429 43.2628L76.4514 40.7864L77.1044 40.0239Z" fill="#4FB654"/>
</svg>
